<mxfile host="app.diagrams.net" modified="2023-12-27T15:53:10.885Z" agent="Mozilla/5.0 (Macintosh; Intel Mac OS X 10_15_7) AppleWebKit/537.36 (KHTML, like Gecko) Chrome/119.0.0.0 Safari/537.36" etag="fHI96n6v0Cf2Q3YHaqbQ" version="22.1.13" type="device">
  <diagram name="Page-1" id="uOmsuXj9vbkT5nmtv6yr">
    <mxGraphModel dx="1434" dy="795" grid="1" gridSize="10" guides="1" tooltips="1" connect="1" arrows="1" fold="1" page="1" pageScale="1" pageWidth="850" pageHeight="1100" math="0" shadow="0">
      <root>
        <mxCell id="0" />
        <mxCell id="1" parent="0" />
        <mxCell id="kIuFIhq83uNE9ZGzUAes-1" value="" style="whiteSpace=wrap;html=1;aspect=fixed;fillColor=#d5e8d4;strokeColor=#82b366;" vertex="1" parent="1">
          <mxGeometry x="260" y="170" width="530" height="530" as="geometry" />
        </mxCell>
        <mxCell id="kIuFIhq83uNE9ZGzUAes-2" value="" style="rounded=0;whiteSpace=wrap;html=1;" vertex="1" parent="1">
          <mxGeometry x="260" y="230" width="60" height="130" as="geometry" />
        </mxCell>
        <mxCell id="kIuFIhq83uNE9ZGzUAes-4" value="Plant" style="whiteSpace=wrap;html=1;aspect=fixed;" vertex="1" parent="1">
          <mxGeometry x="260" y="230" width="30" height="30" as="geometry" />
        </mxCell>
        <mxCell id="kIuFIhq83uNE9ZGzUAes-5" value="Water" style="whiteSpace=wrap;html=1;aspect=fixed;" vertex="1" parent="1">
          <mxGeometry x="260" y="260" width="30" height="30" as="geometry" />
        </mxCell>
      </root>
    </mxGraphModel>
  </diagram>
</mxfile>
